<svg width="94" height="56" viewBox="0 0 94 56" fill="none" xmlns="http://www.w3.org/2000/svg">
<g clip-path="url(#clip0_4004_300)">
<path d="M25.015 22.1219C25.015 23.6388 24.1124 24.3973 22.3072 24.3973C20.502 24.3973 19.5994 23.6388 19.5994 22.1219C19.5994 21.4898 19.8573 20.8578 20.373 20.3521C20.8888 19.9729 21.5335 19.7201 22.1782 19.7201C22.823 19.7201 23.4677 19.9729 23.9835 20.3521C24.7571 20.8578 25.015 21.3634 25.015 22.1219ZM24.8861 27.1783C24.8861 28.1896 24.8861 29.5801 24.7571 31.6027C24.6282 33.6253 24.6282 35.0158 24.6282 36.0271C24.6282 36.912 24.6282 38.3025 24.6282 40.1986C24.6282 42.0948 24.6282 43.3589 24.6282 44.3702C24.6282 44.623 24.4992 44.7494 24.2413 44.7494H20.502C20.2441 44.7494 20.1151 44.4966 20.1151 43.991C20.1151 43.1061 20.1151 41.842 20.2441 40.0722C20.2441 38.3025 20.373 37.0384 20.373 36.1535C20.373 35.1422 20.2441 33.6253 20.1151 31.7291C19.9862 29.7065 19.8573 28.316 19.8573 27.3047C19.8573 27.0519 19.9862 26.9255 20.2441 26.9255C20.502 26.9255 20.8888 26.9255 21.2756 27.0519C21.7914 27.1783 22.1782 27.1783 22.3072 27.1783C22.4361 27.1783 22.9519 27.1783 23.3387 27.0519C23.8545 27.0519 24.2413 26.9255 24.3703 26.9255C24.7571 26.9255 24.8861 26.9255 24.8861 27.1783Z" fill="#FFA500"/>
<path d="M45.6459 40.4515C45.6459 40.9571 45.517 41.5892 45.388 42.474C45.2591 43.3589 45.1301 44.1174 45.1301 44.4966C45.1301 44.7494 45.0012 44.8759 44.6144 44.8759C43.8407 44.8759 42.6802 44.8759 41.1329 44.7494C39.5856 44.7494 38.4251 44.623 37.6514 44.623H28.4964C28.1096 44.623 27.9806 44.4966 27.8517 44.2438C27.5938 42.8533 27.4648 41.7156 27.4648 41.0835C27.4648 40.9571 29.399 37.7968 33.3963 31.8555C37.3935 25.9142 39.3277 22.6275 39.3277 22.3747C39.3277 22.2483 39.1987 22.1219 38.8119 22.1219H28.4964C28.2385 22.1219 28.1096 21.9955 28.1096 21.7427C28.1096 21.6163 28.2385 21.1106 28.3675 19.9729C28.4964 18.9616 28.6253 18.3296 28.7543 18.2032C28.7543 18.0768 29.0122 17.9503 29.2701 17.9503C29.7858 17.9503 30.5595 17.9503 31.4621 18.0768C32.4937 18.2032 33.1384 18.2032 33.6541 18.2032H44.4854C44.7433 18.2032 44.8723 18.3296 44.8723 18.5824C45.0012 19.3409 45.1301 20.3522 45.1301 21.3634C45.1301 21.4899 43.067 24.6501 39.0698 30.8443C35.0725 37.0384 32.8805 40.3251 32.8805 40.5779C32.8805 40.7043 33.0094 40.7043 33.2673 40.7043C37.0067 40.7043 39.8434 40.5779 41.9065 40.4515C42.1644 40.4515 42.8092 40.3251 43.7118 40.1987C44.4854 40.0722 45.0012 40.0722 45.388 40.0722C45.517 40.1987 45.6459 40.3251 45.6459 40.4515Z" fill="#FFA500"/>
<path d="M72.5952 31.3499C72.5952 34.8894 71.5637 37.9233 69.5006 40.5779C67.3085 43.3589 64.3428 44.7495 60.8614 44.7495C60.2166 44.7495 59.1851 44.7495 57.8957 44.623C56.6062 44.623 55.5747 44.4966 54.9299 44.4966C54.2852 44.4966 53.3826 44.4966 52.2221 44.623C51.0616 44.623 50.0301 44.7495 49.5143 44.7495C49.2564 44.7495 48.9985 44.623 48.9985 44.2438C48.9985 42.8533 48.9985 40.8307 49.1275 38.0497C49.2564 35.2686 49.2564 33.2461 49.2564 31.8556C49.2564 30.3386 49.2564 28.1896 49.1275 25.2822C48.9985 22.3747 48.9985 20.0993 48.9985 18.7088C48.9985 18.456 49.1275 18.3296 49.5143 18.3296C50.0301 18.3296 50.6748 18.3296 51.7064 18.3296C52.609 18.3296 53.3826 18.3296 53.8984 18.3296C54.2852 18.3296 55.0589 18.3296 55.9615 18.3296C56.8641 18.3296 57.5088 18.3296 58.0246 18.3296C62.5376 18.3296 65.8902 19.2145 68.0822 20.8578C69.6295 21.9955 70.919 23.6388 71.6926 25.6614C72.2084 27.3048 72.5952 29.3273 72.5952 31.3499ZM67.8243 31.3499C67.8243 28.5689 67.0507 26.4199 65.5033 24.6501C63.8271 22.8804 61.635 21.9955 58.9272 21.9955C56.6062 21.9955 55.7036 21.9955 56.2194 21.9955C54.6721 22.1219 53.8984 22.3747 53.8984 22.754C53.8984 23.7653 53.8984 25.1558 53.7695 27.1783C53.7695 29.0745 53.6405 30.5914 53.6405 31.6027C53.6405 32.614 53.6405 34.0045 53.7695 35.9007C53.8984 37.7969 53.8984 39.3138 53.8984 40.1987C53.8984 40.7043 54.6721 40.9571 56.2194 41.0835C55.9615 41.0835 56.993 41.0835 59.0561 41.0835C60.4745 41.0835 61.764 40.9571 62.5376 40.5779C63.5692 40.1987 64.6007 39.4402 65.5033 38.4289C67.0507 36.5328 67.8243 34.1309 67.8243 31.3499Z" fill="#FFA500"/>
<path d="M94 40.9571C94 41.2099 94 41.4628 93.8711 41.842C93.7421 42.3476 93.7421 42.6005 93.6132 42.7269C93.6132 43.2325 93.4842 43.8646 93.3553 44.7495C93.2263 45.0023 93.0974 45.1287 92.8395 45.1287C92.7106 45.1287 92.4527 45.1287 92.0658 45.0023C90.5185 44.7494 88.0686 44.623 84.716 44.623C83.8134 44.623 82.3951 44.623 80.4609 44.7495C78.5267 44.7495 77.1084 44.8759 76.2058 44.8759C75.8189 44.8759 75.561 44.7494 75.561 44.3702C75.561 42.9797 75.69 40.8307 75.8189 38.0497C75.9479 35.2686 76.0768 33.1197 76.0768 31.7291C76.0768 30.3386 75.9479 27.5576 75.8189 23.6388C75.8189 22.6276 75.69 21.1106 75.561 19.088V18.8352C75.561 18.5824 75.69 18.456 76.0768 18.456C76.9794 18.456 78.3978 18.456 80.203 18.5824C82.0082 18.5824 83.2977 18.7088 84.2003 18.7088C85.1029 18.7088 86.3923 18.7088 88.0686 18.5824C89.7449 18.456 91.0343 18.456 91.9369 18.456C92.5816 18.456 92.8395 18.5824 92.9684 18.9616C93.2263 20.605 93.3553 21.6163 93.3553 22.1219C93.3553 22.3747 93.2263 22.5011 92.9684 22.5011C91.8079 22.5011 90.2606 22.5011 87.9396 22.3747C85.7476 22.2483 84.0713 22.2483 82.9108 22.2483C81.8793 22.2483 81.2346 22.3747 80.8477 22.6276C80.5898 22.8804 80.4609 23.6388 80.4609 24.6501V27.4312C80.4609 28.1896 80.4609 28.6953 80.4609 28.8217C80.5898 29.2009 80.9767 29.4537 81.4925 29.4537C81.6214 29.4537 81.8793 29.4537 82.1372 29.4537C82.3951 29.4537 82.6529 29.4537 82.7819 29.4537C85.3608 29.4537 87.5528 29.4537 89.6159 29.3273C90.3896 29.3273 91.2922 29.2009 92.4527 29.2009C92.7106 29.2009 92.8395 29.3273 92.8395 29.5801C92.8395 29.9594 92.8395 30.5914 92.7106 31.4763C92.5816 32.3612 92.5816 32.9932 92.5816 33.3725C92.5816 33.6253 92.4527 33.7517 92.0658 33.7517C91.9369 33.7517 91.2922 33.7517 90.3896 33.6253C89.6159 33.4989 88.0686 33.4989 85.4897 33.4989C83.4266 33.4989 82.0082 33.4989 81.4925 33.6253C80.9767 33.6253 80.7188 33.8781 80.5898 34.3838C80.5898 34.2574 80.5898 34.763 80.5898 35.9007V38.6817C80.5898 39.9458 80.8477 40.8307 81.2346 41.2099C81.4924 41.4628 82.3951 41.5892 83.6845 41.5892H85.8765C86.7791 41.5892 89.358 41.4628 93.4842 41.0835H93.7421C93.871 40.4515 94 40.5779 94 40.9571Z" fill="#FFA500"/>
<path d="M15.2153 21.9955C15.2153 18.0768 18.4389 15.0429 22.3073 15.0429C23.0809 15.0429 23.5967 14.5373 23.5967 13.7788C23.5967 13.0203 23.0809 12.5147 22.3073 12.5147C16.8916 12.5147 12.6365 16.8126 12.6365 21.9955C12.6365 22.754 13.1522 23.2596 13.9259 23.2596C14.6996 23.2596 15.2153 22.6275 15.2153 21.9955Z" fill="#FFA500"/>
<path d="M7.6078 23.2596C8.38146 23.2596 8.89723 22.7539 8.89723 21.9955C8.89723 14.6636 14.9576 8.84875 22.4363 8.72234C23.21 8.72234 23.7258 8.2167 23.7258 7.45823C23.7258 6.69977 23.21 6.19412 22.4363 6.19412C13.5392 6.19412 6.4473 13.2731 6.31836 21.9955C6.31836 22.6275 6.96308 23.2596 7.6078 23.2596Z" fill="#FFA500"/>
<path d="M23.7256 1.26411C23.7256 2.02257 23.2099 2.52822 22.4362 2.52822C11.476 2.52822 2.57887 11.2506 2.57887 21.9955C2.57887 22.754 2.0631 23.2596 1.28944 23.2596C0.515775 23.2596 0 22.754 0 21.9955C0 9.86004 10.0576 0 22.4362 0C23.0809 0 23.7256 0.505643 23.7256 1.26411Z" fill="#FFA500"/>
<path d="M75.6901 54.6095C75.9479 54.6095 76.0769 54.7359 76.2058 54.7359C76.3348 54.8623 76.5927 54.8623 76.7216 54.8623C76.8505 54.8623 76.9795 54.9887 77.2374 54.9887C77.3663 54.9887 77.4953 54.9887 77.6242 54.9887C77.7532 54.9887 78.011 54.9887 78.14 54.8623C78.2689 54.8623 78.3979 54.7359 78.5268 54.7359C78.6558 54.6095 78.6558 54.6095 78.7847 54.4831C78.7847 54.3566 78.9136 54.2302 78.9136 54.1038C78.9136 53.9774 78.9136 53.851 78.7847 53.7246C78.6558 53.5982 78.5268 53.4718 78.3979 53.4718C78.2689 53.4718 78.011 53.3454 77.8821 53.2189C77.6242 53.2189 77.4953 53.0925 77.2374 53.0925C76.9795 53.0925 76.8505 52.9661 76.5927 52.8397C76.3348 52.7133 76.2058 52.7133 76.0769 52.5869C75.9479 52.4605 75.819 52.3341 75.6901 52.2077C75.5611 52.0812 75.5611 51.8284 75.5611 51.5756C75.5611 51.3228 75.5611 51.07 75.6901 50.8171C75.819 50.5643 75.9479 50.3115 76.2058 50.1851C76.4637 50.0587 76.7216 49.8059 76.9795 49.8059C77.2374 49.6794 77.6242 49.6794 78.011 49.6794C78.14 49.6794 78.2689 49.6794 78.2689 49.6794C78.3979 49.6794 78.5268 49.6794 78.6558 49.6794C78.7847 49.6794 78.9136 49.6794 79.0426 49.8059C79.1715 49.8059 79.3005 49.9323 79.4294 49.9323L79.1715 50.8171L79.0426 50.9436C78.9136 50.9436 78.7847 50.8171 78.6558 50.8171C78.5268 50.8171 78.7847 50.5643 78.5268 50.5643C78.2689 50.5643 78.2689 50.5643 78.14 50.5643C78.011 50.5643 77.8821 50.5643 77.7532 50.5643C77.6242 50.5643 77.3663 50.5643 77.2374 50.5643C77.1084 50.5643 76.9795 50.6907 76.8505 50.6907C76.7216 50.8171 76.7216 50.8171 76.5927 50.9436C76.5927 51.07 76.4637 51.1964 76.4637 51.3228C76.4637 51.4492 76.4637 51.5756 76.5927 51.702C76.7216 51.8284 76.8505 51.9548 76.9795 51.9548C77.1084 52.0812 77.3663 52.0812 77.4953 52.2077C77.7531 52.2077 77.8821 52.3341 78.14 52.3341C78.3979 52.3341 78.5268 52.4605 78.7847 52.5869C79.0426 52.7133 79.1715 52.7133 79.3005 52.8397C79.4294 52.9661 79.5584 53.0925 79.6873 53.2189C79.8163 53.3454 79.8163 53.5982 79.8163 53.851C79.8163 54.1038 79.6873 54.3566 79.5584 54.6095C79.4294 54.8623 79.3005 55.1151 79.0426 55.2415C78.7847 55.3679 78.5268 55.4943 78.2689 55.6208C78.011 55.7472 77.6242 55.7472 77.2374 55.7472C76.9795 55.7472 76.5927 55.7472 76.3348 55.6208C75.9479 55.4943 75.6901 55.4943 75.3032 55.3679L75.6901 54.6095Z" fill="#FFA500"/>
<path d="M82.1372 48.4154C82.0082 48.4154 82.0082 48.4154 81.8793 48.4154C81.7503 48.4154 81.7503 48.2889 81.6214 48.2889C81.6214 48.2889 81.4924 48.1625 81.4924 48.0361C81.4924 47.9097 81.4924 47.9097 81.4924 47.7833C81.4924 47.6569 81.4924 47.5305 81.4924 47.5305C81.4924 47.5305 81.6214 47.4041 81.6214 47.2777C81.6214 47.1512 81.7503 47.1512 81.8793 47.1512C82.0082 47.1512 82.0082 47.1512 82.1372 47.1512C82.2661 47.1512 82.2661 47.1512 82.395 47.1512C82.524 47.1512 82.524 47.2777 82.6529 47.2777C82.6529 47.4041 82.7819 47.4041 82.7819 47.5305C82.7819 47.6569 82.7819 47.6569 82.7819 47.7833C82.7819 47.9097 82.7819 48.0361 82.7819 48.0361C82.7819 48.1625 82.6529 48.1625 82.6529 48.2889C82.524 48.2889 82.524 48.4154 82.395 48.4154C82.395 48.4154 82.2661 48.4154 82.1372 48.4154ZM81.6214 49.6795H82.7819V55.7472H81.6214V49.6795Z" fill="#FFA500"/>
<path d="M84.845 49.6794H85.7476L85.8766 50.6907C86.0055 50.5643 86.1344 50.4379 86.3923 50.3115C86.5213 50.1851 86.7792 50.0587 86.9081 49.9323C87.166 49.8059 87.2949 49.6794 87.5528 49.6794C87.8107 49.553 87.9397 49.553 88.1976 49.553C88.3265 49.553 88.5844 49.553 88.7133 49.6794C88.8423 49.6794 89.1002 49.8059 89.2291 49.9323C89.358 50.0587 89.487 50.1851 89.6159 50.3115C89.7449 50.4379 89.8738 50.5643 89.8738 50.8171C90.0028 50.6907 90.1317 50.5643 90.3896 50.4379C90.5185 50.3115 90.7764 50.1851 90.9054 50.0587C91.0343 49.9323 91.2922 49.8059 91.5501 49.8059C91.808 49.6795 91.9369 49.6794 92.1948 49.6794C92.4527 49.6794 92.7106 49.6795 92.9685 49.8059C93.2264 49.9323 93.3553 50.0587 93.6132 50.3115C93.7421 50.5643 93.8711 50.6907 94 50.9436C94.129 51.1964 94.129 51.4492 94.129 51.8284V55.8736H92.8395V51.9548C92.8395 51.702 92.8395 51.5756 92.7106 51.4492C92.7106 51.3228 92.5816 51.1964 92.4527 51.07C92.3237 50.9436 92.1948 50.8171 92.0659 50.8171C91.9369 50.8171 91.808 50.6907 91.5501 50.6907C91.4211 50.6907 91.2922 50.6907 91.0343 50.8171C90.9054 50.8171 90.7764 50.9436 90.6475 51.07C90.5185 51.1964 90.3896 51.1964 90.2606 51.3228C90.1317 51.4492 90.0028 51.5756 89.8738 51.702V51.8284V51.9548V56H88.7133V52.0813C88.7133 51.8284 88.7133 51.702 88.5844 51.5756C88.5844 51.4492 88.4554 51.3228 88.3265 51.1964C88.1975 51.07 88.0686 50.9436 87.9397 50.9436C87.8107 50.9436 87.6818 50.8171 87.4239 50.8171C87.2949 50.8171 87.166 50.8171 87.0371 50.9436C86.9081 50.9436 86.7792 51.07 86.6502 51.1964C86.5213 51.3228 86.3923 51.3228 86.2634 51.4492C86.1345 51.5756 86.0055 51.702 85.8766 51.8284V56.2528H84.7161V49.6794H84.845Z" fill="#FFA500"/>
</g>
<defs>
<clipPath id="clip0_4004_300">
<rect width="94" height="56" fill="white"/>
</clipPath>
</defs>
</svg>
