<svg width="40" height="40" viewBox="0 0 40 40" fill="none" xmlns="http://www.w3.org/2000/svg">
<rect x="0.5" y="0.5" width="39" height="39" rx="7.5" stroke="#DBDFE5"/>
<path d="M25.5 9.00002V11.2M20 9.00002V11.2M14.5 9.00002V11.2" stroke="black" stroke-width="1.5" stroke-linecap="round" stroke-linejoin="round"/>
<path d="M10.6499 17.8C10.6499 14.1702 10.6499 12.3553 11.7775 11.2277C12.9052 10.1 14.7201 10.1 18.3499 10.1H21.6499C25.2797 10.1 27.0946 10.1 28.2223 11.2277C29.3499 12.3553 29.3499 14.1702 29.3499 17.8V23.3C29.3499 26.9298 29.3499 28.7447 28.2223 29.8724C27.0946 31 25.2797 31 21.6499 31H18.3499C14.7201 31 12.9052 31 11.7775 29.8724C10.6499 28.7447 10.6499 26.9298 10.6499 23.3V17.8Z" stroke="black" stroke-width="1.5" stroke-linecap="round" stroke-linejoin="round"/>
<path d="M15.6001 23.3H20.0001M15.6001 17.8H24.4001" stroke="black" stroke-width="1.5" stroke-linecap="round"/>
</svg>
